<svg xmlns="http://www.w3.org/2000/svg" viewBox="0 0 411.43 83.51"><title>Asset 1</title><g id="Layer_2" data-name="Layer 2"><g id="Layer_4" data-name="Layer 4">
<path d="M0,78.65V6A5.67,5.67,0,0,1,1.69,1.47,6.36,6.36,0,0,1,6,0a9.44,9.44,0,0,1,5.37,1.41,14.4,14.4,0,0,1,4.12,5.37L31.3,36.73,47.35,6.78a14.58,14.58,0,0,1,4.07-5.37A9.11,9.11,0,0,1,56.73,0,6.31,6.31,0,0,1,61,1.47,5.67,5.67,0,0,1,62.71,6V78.65A3.26,3.26,0,0,1,61,81.53a7.91,7.91,0,0,1-4.23,1.07,8,8,0,0,1-4.19-1.07,3.25,3.25,0,0,1-1.8-2.88V24.41l-15.14,28a5.06,5.06,0,0,1-4.41,2.71,4.34,4.34,0,0,1-4.07-2.71L12,23.73V78.65a3.28,3.28,0,0,1-1.75,2.88A7.93,7.93,0,0,1,6,82.6a8,8,0,0,1-4.18-1.07A3.25,3.25,0,0,1,0,78.65Z"/>
<path d="M75.15,61.25V33A3.34,3.34,0,0,1,77,30.23,7.47,7.47,0,0,1,81.13,29a7.19,7.19,0,0,1,4.13,1.19A3.35,3.35,0,0,1,87,33V61.16a11.45,11.45,0,0,0,3.45,8.12,11,11,0,0,0,16.21,0,11.48,11.48,0,0,0,3.39-8.17V32.87a3.23,3.23,0,0,1,1.75-2.7A7.69,7.69,0,0,1,116.05,29a7.15,7.15,0,0,1,4.13,1.13,3.25,3.25,0,0,1,1.63,2.71V61.25a21,21,0,0,1-6.89,15.59,23.52,23.52,0,0,1-32.82,0A20.91,20.91,0,0,1,75.15,61.25Z"/>
<path d="M130.4,74.47A6.38,6.38,0,0,1,131.6,71a3.45,3.45,0,0,1,2.9-1.8,5.56,5.56,0,0,1,2.85,1.32,25.68,25.68,0,0,0,4.9,2.66,18.68,18.68,0,0,0,7.4,1.33q9.67,0,9.68-6.14a5.9,5.9,0,0,0-2.82-5.18,23.34,23.34,0,0,0-6.84-2.95c-2.68-.72-5.33-1.54-8-2.44a15.41,15.41,0,0,1-6.78-4.67,12.64,12.64,0,0,1-2.82-8.52,15.64,15.64,0,0,1,4.74-11.42q4.75-4.78,14.58-4.79a33,33,0,0,1,11.7,2q5.25,2,5.25,4.69a7.16,7.16,0,0,1-1.3,3.67,3.76,3.76,0,0,1-3.22,2.09,22.32,22.32,0,0,1-4.63-1.69,19.23,19.23,0,0,0-7.57-1.7c-3,0-5.3.69-6.84,2.05A6,6,0,0,0,142.49,44a4.81,4.81,0,0,0,2.83,4.32,27.87,27.87,0,0,0,6.89,2.61,75.72,75.72,0,0,1,8,2.5,14.66,14.66,0,0,1,9.51,14.44,13.92,13.92,0,0,1-5.2,11.48q-5.21,4.16-14.69,4.16a30.57,30.57,0,0,1-13.73-2.83Q130.4,77.86,130.4,74.47Z"/>
<path d="M177.41,61V50.29a20.51,20.51,0,0,1,6.89-15.43,23.36,23.36,0,0,1,16.61-6.5,23.08,23.08,0,0,1,15.88,5.88,19,19,0,0,1,6.61,14.84,16.59,16.59,0,0,1-.79,5.59,5.2,5.2,0,0,1-2.49,3,10.77,10.77,0,0,1-3.16,1.1,26.26,26.26,0,0,1-3.84.23H189.27V61.6a11.15,11.15,0,0,0,4.07,9.06Q197.41,74,204,74a18.62,18.62,0,0,0,8.75-2.17q4.13-2.16,5-2.16A4,4,0,0,1,221,71.5,6,6,0,0,1,222.38,75q0,2.79-5.42,5.64a28.41,28.41,0,0,1-13.33,2.85q-11.53,0-18.88-6.22A20.29,20.29,0,0,1,177.41,61Zm11.86-9.6H208a5.84,5.84,0,0,0,3.34-.67,3.32,3.32,0,0,0,.84-2.67,10,10,0,0,0-3.27-7.56,11.36,11.36,0,0,0-8.14-3.12,12,12,0,0,0-8.14,3,9.51,9.51,0,0,0-3.39,7.51Z"/>
<path d="M232.55,61.25V33a3.34,3.34,0,0,1,1.81-2.77A7.45,7.45,0,0,1,238.54,29a7.21,7.21,0,0,1,4.13,1.19A3.37,3.37,0,0,1,244.42,33V61.16a11.44,11.44,0,0,0,3.44,8.12,11,11,0,0,0,16.22,0,11.48,11.48,0,0,0,3.39-8.17V32.87a3.21,3.21,0,0,1,1.75-2.7A7.69,7.69,0,0,1,273.46,29a7.12,7.12,0,0,1,4.12,1.13,3.26,3.26,0,0,1,1.64,2.71V61.25a21,21,0,0,1-6.89,15.59,23.53,23.53,0,0,1-32.83,0A21,21,0,0,1,232.55,61.25Z"/>
<path d="M291.65,78.65V6a5.67,5.67,0,0,1,1.7-4.52A6.31,6.31,0,0,1,297.64,0,9.4,9.4,0,0,1,303,1.41a14.3,14.3,0,0,1,4.12,5.37L323,36.73,339,6.78a14.69,14.69,0,0,1,4.07-5.37A9.11,9.11,0,0,1,348.38,0a6.31,6.31,0,0,1,4.29,1.47A5.67,5.67,0,0,1,354.37,6V78.65a3.28,3.28,0,0,1-1.75,2.88,8.82,8.82,0,0,1-8.42,0,3.25,3.25,0,0,1-1.81-2.88V24.41l-15.14,28a5,5,0,0,1-4.41,2.71,4.35,4.35,0,0,1-4.07-2.71l-15.14-28.7V78.65a3.26,3.26,0,0,1-1.75,2.88,8.82,8.82,0,0,1-8.42,0A3.27,3.27,0,0,1,291.65,78.65Z"/>
<path d="M365.44,61V50.29a20.48,20.48,0,0,1,6.9-15.43A23.35,23.35,0,0,1,389,28.36a23.05,23.05,0,0,1,15.87,5.88,19,19,0,0,1,6.61,14.84,16.34,16.34,0,0,1-.79,5.59,5.15,5.15,0,0,1-2.48,3,10.82,10.82,0,0,1-3.17,1.1,26.26,26.26,0,0,1-3.84.23H377.31V61.6a11.12,11.12,0,0,0,4.07,9.06Q385.44,74,392,74a18.59,18.59,0,0,0,8.75-2.17q4.13-2.16,5-2.16a4,4,0,0,1,3.28,1.81A6,6,0,0,1,410.42,75q0,2.79-5.43,5.64a28.38,28.38,0,0,1-13.33,2.85q-11.54,0-18.87-6.22A20.27,20.27,0,0,1,365.44,61Zm11.87-9.6h18.76a5.83,5.83,0,0,0,3.33-.67,3.32,3.32,0,0,0,.85-2.67A10,10,0,0,0,397,40.52a11.36,11.36,0,0,0-8.14-3.12,12,12,0,0,0-8.13,3,9.51,9.51,0,0,0-3.39,7.51Z"/></g></g></svg>
